{"title":"Paul CAM NEW SOURCE XViD v2 DTRG SAFCuk009","uid":6239685,"size":1185036490,"categoryP":"video","categoryS":"movies","magnet":"?xt=urn:btih:1afccd1eb9052c76c421dd16413153d63db2d1a0&amp;dn=Paul+CAM+NEW+SOURCE+XViD+v2+DTRG+SAFCuk009&amp;tr=udp%3A%2F%2Ftracker.openbittorrent.com%3A80&amp;tr=udp%3A%2F%2Fopen.demonii.com%3A1337&amp;tr=udp%3A%2F%2Ftracker.coppersurfer.tk%3A6969&amp;tr=udp%3A%2F%2Fexodus.desync.com%3A6969","seeders":0,"leechers":0,"uploader":"SAFCukO09","files":3,"time":1299976073,"description":"[img]http://img852.imageshack.us/img852/25/ez3kial000000.jpg[/img]\n\n\n\n[img]http://leetleech.org/images/48874973695367351744.png[/img]\n\n\nFormat                           : AVI\nFormat/Info                      : Audio Video Interleave\nFile size                        : 1.10 GiB\nDuration                         : 1h 37mn\nOverall bit rate                 : 1 613 Kbps\nWriting library                  : VirtualDub build 32839/release\n\nVideo\nID                               : 0\nFormat                           : MPEG-4 Visual\nFormat profile                   : Advanced Simple@L5\nFormat settings, BVOP            : Yes\nFormat settings, QPel            : No\nFormat settings, GMC             : No warppoints\nFormat settings, Matrix          : Custom\nCodec ID                         : XVID\nCodec ID/Hint                    : XviD\nDuration                         : 1h 37mn\nBit rate                         : 1 475 Kbps\nWidth                            : 720 pixels\nHeight                           : 336 pixels\nDisplay aspect ratio             : 2.2:1\nFrame rate                       : 25.000 fps\nColor space                      : YUV\nChroma subsampling               : 4:2:0\nBit depth                        : 8 bits\nScan type                        : Progressive\nBits/(Pixel*Frame)               : 0.244\nStream size                      : 1.01 GiB (91%)\nWriting library                  : XviD 1.2.1 (UTC 2008-12-04)\n\nAudio\nID                               : 1\nFormat                           : MPEG Audio\nFormat version                   : Version 1\nFormat profile                   : Layer 3\nMode                             : Joint stereo\nMode extension                   : MS Stereo\nCodec ID                         : 55\nCodec ID/Hint                    : MP3\nDuration                         : 1h 37mn\nBit rate mode                    : Constant\nBit rate                         : 128 Kbps\nChannel(s)                       : 2 channels\nSampling rate                    : 44.1 KHz\nStream size                      : 89.7 MiB (8%)\nAlignment                        : Split accross interleaves\nInterleave, duration             : 40 ms (1.00 video frame)\nInterleave, preload duration     : 500 ms\n\n\n\n\n[url]http://www.imdb.com/title/tt1092026/[/url]\n\n\n\n\n[IMG]http://leetleech.org/images/89524873606771859129.png[/IMG]\n\n\n\nStoryline\n\nSimon Pegg and Nick Frost (Hot Fuzz, Shaun of the Dead) reunite for the comedy adventure Paul as two sci-fi geeks whose pilgrimage takes them to America's UFO heartland. While there, they accidentally meet an alien who brings them on an insane road trip that alters their universe forever. For the past 60 years, an alien named Paul (voiced by Seth Rogen) has been hanging out at a top-secret military base. When he discovers he's been taken prisoner, the space-traveling smart ass decides to escape the compound and hop on the first vehicle out of town-a rented RV containing Earthlings Graeme Willy (Pegg) and Clive Gollings (Frost). Chased by federal agents and the fanatical father of a young woman that they accidentally kidnap, Graeme and Clive hatch a fumbling escape plan to return Paul to his mother ship. And as two nerds struggle to help, one little green man might just take his fellow outcasts from misfits to intergalactic heroes...\n\n\n[img]http://leetleech.org/images/95521316153253938506.png[/img]\n\n\n\n\n[img]http://img13.imageshack.us/img13/5548/vlcsnap2011031308h54m19.png[/img]\n\n[img]http://img27.imageshack.us/img27/846/vlcsnap2011031308h54m59.png[/img]\n\n[img]http://img146.imageshack.us/img146/1435/vlcsnap2011031308h54m42.png[/img]\n\n\nSOURCES:\n\n\n\nVIDEO: SERENiTY 720p files...Thanks  \n\nAUDIO: TaRiQ786 720p files...Thanks  \n\nAlso thanks to the guys from Imagine on this one \n\nV2 of paul .........Just my take on it with just a couple of filters a slight drop in brightness and a real slight increase in sharpness ....Pity its not line but take it or leave it \n\nEnjoy !\n\n\nGreetz to Imagine ,Flawl3ss,DiLLoN,BDK,NOiR,TOXiCiNK,THC,Ez,Rx,\n\n\n\n\n\n[img]http://img411.imageshack.us/img411/6898/sig1n.jpg[/img]\n\n\n\n\n\n","torrent":{"xt":"urn:btih:1afccd1eb9052c76c421dd16413153d63db2d1a0","amp;dn":"Paul+CAM+NEW+SOURCE+XViD+v2+DTRG+SAFCuk009","amp;tr":["udp%3A%2F%2Ftracker.openbittorrent.com%3A80","udp%3A%2F%2Fopen.demonii.com%3A1337","udp%3A%2F%2Ftracker.coppersurfer.tk%3A6969","udp%3A%2F%2Fexodus.desync.com%3A6969"],"infoHash":"1afccd1eb9052c76c421dd16413153d63db2d1a0","infoHashBuffer":{"type":"Buffer","data":[26,252,205,30,185,5,44,118,196,33,221,22,65,49,83,214,61,178,209,160]},"announce":[],"urlList":[]}}